<svg width="84" height="80" viewBox="0 0 84 80" fill="none" xmlns="http://www.w3.org/2000/svg">
<rect x="0.5" y="0.5" width="83" height="79" rx="21.5" fill="#F0F4F8" stroke="#97B1CC"/>
<path d="M40 21H26C24.9391 21 23.9217 21.4214 23.1716 22.1715C22.4214 22.9217 22 23.9391 22 25V53C22 54.0608 22.4214 55.0782 23.1716 55.8284C23.9217 56.5785 24.9391 57 26 57H54C55.0609 57 56.0783 56.5785 56.8284 55.8284C57.5786 55.0782 58 54.0608 58 53V39M55 18C55.7956 17.2043 56.8748 16.7573 58 16.7573C59.1252 16.7573 60.2044 17.2043 61 18C61.7956 18.7956 62.2426 19.8747 62.2426 21C62.2426 22.1252 61.7956 23.2043 61 24L42 43L34 45L36 37L55 18Z" stroke="#1E1E1E" stroke-width="4" stroke-linecap="round" stroke-linejoin="round"/>
</svg>
